<svg xmlns="http://www.w3.org/2000/svg" width="96" height="88" viewBox="0 0 96 88">
  <defs>
    <linearGradient id="asteroid5Body" x1="6" y1="10" x2="92" y2="82" gradientUnits="userSpaceOnUse">
      <stop offset="0" stop-color="#bfeee3"/>
      <stop offset="0.55" stop-color="#5aa7a0"/>
      <stop offset="1" stop-color="#2c5d63"/>
    </linearGradient>
    <radialGradient id="asteroid5Crater" cx="38%" cy="34%" r="88%">
      <stop offset="0" stop-color="#e7fff8"/>
      <stop offset="0.6" stop-color="#8cd0c7"/>
      <stop offset="1" stop-color="#3c7e84"/>
    </radialGradient>
  </defs>

  <g stroke="#2c5d63" stroke-width="3" stroke-linejoin="round" stroke-linecap="round">
    <!-- shadow -->
    <path d="M18 24 C24 14 38 10 50 10 C64 10 76 16 84 26 C92 36 94 50 88 62 C82 74 68 82 52 82 C36 82 24 76 16 66 C8 56 8 40 14 30 C15 28 16 26 18 24 Z" fill="rgba(0,0,0,0.16)" stroke="none" transform="translate(3 4)"/>

    <!-- body -->
    <path d="M18 24 C24 14 38 10 50 10 C64 10 76 16 84 26 C92 36 94 50 88 62 C82 74 68 82 52 82 C36 82 24 76 16 66 C8 56 8 40 14 30 C15 28 16 26 18 24 Z" fill="url(#asteroid5Body)"/>

    <!-- highlight -->
    <path d="M22 26 C34 16 52 14 66 18" fill="none" stroke="rgba(255,255,255,0.30)" stroke-width="3"/>

    <!-- seams -->
    <g stroke="#0f2b2f" stroke-opacity="0.28" stroke-width="2" fill="none">
      <path d="M70 26 C62 34 64 40 72 48 C80 56 78 64 70 70"/>
      <path d="M24 58 C34 52 44 52 50 58"/>
    </g>

    <!-- craters -->
    <g stroke="#3c7e84" stroke-width="2">
      <ellipse cx="34" cy="34" rx="10" ry="7" fill="rgba(0,0,0,0.10)" stroke="none" transform="translate(2 2)"/>
      <ellipse cx="34" cy="34" rx="10" ry="7" fill="url(#asteroid5Crater)"/>

      <ellipse cx="66" cy="36" rx="9" ry="6.5" fill="rgba(0,0,0,0.10)" stroke="none" transform="translate(2 2)"/>
      <ellipse cx="66" cy="36" rx="9" ry="6.5" fill="url(#asteroid5Crater)"/>

      <ellipse cx="52" cy="62" rx="8" ry="6" fill="rgba(0,0,0,0.10)" stroke="none" transform="translate(2 2)"/>
      <ellipse cx="52" cy="62" rx="8" ry="6" fill="url(#asteroid5Crater)"/>
    </g>
  </g>
</svg>

