<svg xmlns="http://www.w3.org/2000/svg" width="96" height="88" viewBox="0 0 96 88">
  <defs>
    <linearGradient id="asteroid2Body" x1="8" y1="10" x2="92" y2="84" gradientUnits="userSpaceOnUse">
      <stop offset="0" stop-color="#bca88f"/>
      <stop offset="0.55" stop-color="#7c6b58"/>
      <stop offset="1" stop-color="#43372c"/>
    </linearGradient>
    <radialGradient id="asteroid2Crater" cx="40%" cy="35%" r="88%">
      <stop offset="0" stop-color="#efe6dc"/>
      <stop offset="0.6" stop-color="#a08f7a"/>
      <stop offset="1" stop-color="#6e5f50"/>
    </radialGradient>
  </defs>

  <g stroke="#4f412f" stroke-width="3" stroke-linejoin="round" stroke-linecap="round">
    <!-- shadow -->
    <path d="M18 26 C22 14 36 10 50 10 C64 10 76 16 84 26 C92 36 94 50 88 62 C82 74 68 82 52 82 C36 82 24 76 16 66 C8 56 8 40 14 30 C15 28 16 27 18 26 Z" fill="rgba(0,0,0,0.18)" stroke="none" transform="translate(3 4)"/>

    <!-- body -->
    <path d="M18 26 C22 14 36 10 50 10 C64 10 76 16 84 26 C92 36 94 50 88 62 C82 74 68 82 52 82 C36 82 24 76 16 66 C8 56 8 40 14 30 C15 28 16 27 18 26 Z" fill="url(#asteroid2Body)"/>

    <!-- highlight -->
    <path d="M22 26 C34 16 50 14 64 18" fill="none" stroke="rgba(255,255,255,0.22)" stroke-width="3"/>

    <!-- fissures (behind craters) -->
    <g stroke="#241b14" stroke-opacity="0.28" stroke-width="2" fill="none">
      <path d="M62 20 C56 28 58 34 64 40 C70 46 68 56 60 62"/>
      <path d="M26 66 C34 60 44 60 52 66"/>
    </g>

    <!-- craters -->
    <g stroke="#5f4f3c" stroke-width="2">
      <ellipse cx="30" cy="36" rx="10" ry="7" fill="rgba(0,0,0,0.12)" stroke="none" transform="translate(2 2)"/>
      <ellipse cx="30" cy="36" rx="10" ry="7" fill="url(#asteroid2Crater)"/>

      <ellipse cx="62" cy="34" rx="9" ry="6.5" fill="rgba(0,0,0,0.12)" stroke="none" transform="translate(2 2)"/>
      <ellipse cx="62" cy="34" rx="9" ry="6.5" fill="url(#asteroid2Crater)"/>

      <ellipse cx="54" cy="60" rx="8" ry="6" fill="rgba(0,0,0,0.12)" stroke="none" transform="translate(2 2)"/>
      <ellipse cx="54" cy="60" rx="8" ry="6" fill="url(#asteroid2Crater)"/>
    </g>
  </g>
</svg>

