<svg xmlns="http://www.w3.org/2000/svg" width="110" height="96" viewBox="0 0 110 96">
  <defs>
    <linearGradient id="asteroid10Body" x1="10" y1="10" x2="102" y2="90" gradientUnits="userSpaceOnUse">
      <stop offset="0" stop-color="#f1f4f6"/>
      <stop offset="0.55" stop-color="#8fa4a8"/>
      <stop offset="1" stop-color="#4e5b5e"/>
    </linearGradient>
    <radialGradient id="asteroid10Crater" cx="38%" cy="34%" r="88%">
      <stop offset="0" stop-color="#ffffff"/>
      <stop offset="0.6" stop-color="#cdd8db"/>
      <stop offset="1" stop-color="#8c9b9e"/>
    </radialGradient>
  </defs>

  <g stroke="#4e5b5e" stroke-width="3" stroke-linejoin="round" stroke-linecap="round">
    <!-- shadow -->
    <path d="M22 24 C30 10 48 6 62 10 C78 10 92 18 100 30 C110 44 110 62 100 74 C90 88 72 92 56 90 C40 92 28 86 20 76 C10 64 10 46 18 34 C19 32 20 28 22 24 Z" fill="rgba(0,0,0,0.14)" stroke="none" transform="translate(3 4)"/>

    <!-- body -->
    <path d="M22 24 C30 10 48 6 62 10 C78 10 92 18 100 30 C110 44 110 62 100 74 C90 88 72 92 56 90 C40 92 28 86 20 76 C10 64 10 46 18 34 C19 32 20 28 22 24 Z" fill="url(#asteroid10Body)"/>

    <!-- highlight -->
    <path d="M26 26 C40 14 58 12 76 18" fill="none" stroke="rgba(255,255,255,0.26)" stroke-width="3"/>

    <!-- seams (behind pits) -->
    <g stroke="#0f1415" stroke-opacity="0.22" stroke-width="2" fill="none">
      <path d="M86 22 C78 34 80 42 90 52 C98 60 94 72 82 78"/>
      <path d="M28 72 C42 64 56 64 64 72"/>
    </g>

    <!-- craters -->
    <g stroke="#6a7a7d" stroke-width="2">
      <ellipse cx="36" cy="36" rx="12" ry="8.5" fill="rgba(0,0,0,0.10)" stroke="none" transform="translate(2 2)"/>
      <ellipse cx="36" cy="36" rx="12" ry="8.5" fill="url(#asteroid10Crater)"/>

      <ellipse cx="72" cy="34" rx="10.5" ry="7.5" fill="rgba(0,0,0,0.10)" stroke="none" transform="translate(2 2)"/>
      <ellipse cx="72" cy="34" rx="10.5" ry="7.5" fill="url(#asteroid10Crater)"/>

      <ellipse cx="56" cy="66" rx="9.5" ry="7" fill="rgba(0,0,0,0.10)" stroke="none" transform="translate(2 2)"/>
      <ellipse cx="56" cy="66" rx="9.5" ry="7" fill="url(#asteroid10Crater)"/>
    </g>
  </g>
</svg>

