<svg xmlns="http://www.w3.org/2000/svg" width="110" height="96" viewBox="0 0 110 96">
  <defs>
    <linearGradient id="asteroid9Body" x1="10" y1="10" x2="102" y2="90" gradientUnits="userSpaceOnUse">
      <stop offset="0" stop-color="#ffc0b8"/>
      <stop offset="0.55" stop-color="#c95c4f"/>
      <stop offset="1" stop-color="#7a2f24"/>
    </linearGradient>
    <radialGradient id="asteroid9Crater" cx="38%" cy="34%" r="88%">
      <stop offset="0" stop-color="#ffe1d2"/>
      <stop offset="0.6" stop-color="#f0a59c"/>
      <stop offset="1" stop-color="#b45145"/>
    </radialGradient>
  </defs>

  <g stroke="#7a2f24" stroke-width="3" stroke-linejoin="round" stroke-linecap="round">
    <!-- shadow -->
    <path d="M22 22 C30 10 48 6 62 10 C78 12 94 22 100 36 C108 52 104 70 90 82 C76 94 56 94 40 88 C24 84 14 70 12 54 C10 40 14 30 22 22 Z" fill="rgba(0,0,0,0.18)" stroke="none" transform="translate(3 4)"/>

    <!-- body -->
    <path d="M22 22 C30 10 48 6 62 10 C78 12 94 22 100 36 C108 52 104 70 90 82 C76 94 56 94 40 88 C24 84 14 70 12 54 C10 40 14 30 22 22 Z" fill="url(#asteroid9Body)"/>

    <!-- highlight -->
    <path d="M26 24 C40 12 58 12 76 18" fill="none" stroke="rgba(255,255,255,0.22)" stroke-width="3"/>

    <!-- cracks (behind pits) -->
    <g stroke="#2b0f0c" stroke-opacity="0.26" stroke-width="2" fill="none">
      <path d="M88 22 C80 34 82 42 92 52 C100 60 96 72 84 78"/>
      <path d="M28 74 C42 66 56 66 64 74"/>
    </g>

    <!-- craters -->
    <g stroke="#b45145" stroke-width="2">
      <ellipse cx="40" cy="30" rx="12" ry="8.2" fill="rgba(0,0,0,0.12)" stroke="none" transform="translate(2 2)"/>
      <ellipse cx="40" cy="30" rx="12" ry="8.2" fill="url(#asteroid9Crater)"/>

      <ellipse cx="74" cy="40" rx="10.5" ry="7.5" fill="rgba(0,0,0,0.10)" stroke="none" transform="translate(2 2)"/>
      <ellipse cx="74" cy="40" rx="10.5" ry="7.5" fill="url(#asteroid9Crater)"/>

      <ellipse cx="58" cy="66" rx="9.5" ry="7" fill="rgba(0,0,0,0.10)" stroke="none" transform="translate(2 2)"/>
      <ellipse cx="58" cy="66" rx="9.5" ry="7" fill="url(#asteroid9Crater)"/>
    </g>
  </g>
</svg>

