<svg xmlns="http://www.w3.org/2000/svg" width="96" height="88" viewBox="0 0 96 88">
  <defs>
    <linearGradient id="asteroid15Body" x1="10" y1="8" x2="88" y2="82" gradientUnits="userSpaceOnUse">
      <stop offset="0" stop-color="#4b4f57"/>
      <stop offset="0.55" stop-color="#2a2e35"/>
      <stop offset="1" stop-color="#14161a"/>
    </linearGradient>
    <linearGradient id="asteroid15Lava" x1="0" y1="0" x2="1" y2="1">
      <stop offset="0" stop-color="#ffd36a"/>
      <stop offset="0.5" stop-color="#ff7a59"/>
      <stop offset="1" stop-color="#ff3b3b"/>
    </linearGradient>
  </defs>

  <g stroke="#0f1115" stroke-width="3" stroke-linejoin="round" stroke-linecap="round">
    <!-- shadow -->
    <path d="M18 24 C24 14 36 10 48 10 C62 10 74 16 82 26 C90 36 92 50 86 62 C80 74 66 82 52 82 C38 82 26 76 18 66 C10 56 8 40 14 30 C15 28 16 26 18 24 Z" fill="rgba(0,0,0,0.22)" stroke="none" transform="translate(3 4)"/>

    <!-- body (rounded perimeter) -->
    <path d="M18 24 C24 14 36 10 48 10 C62 10 74 16 82 26 C90 36 92 50 86 62 C80 74 66 82 52 82 C38 82 26 76 18 66 C10 56 8 40 14 30 C15 28 16 26 18 24 Z" fill="url(#asteroid15Body)"/>

    <!-- glowing cracks (drawn behind ember pits) -->
    <path d="M24 52 C30 46 38 46 44 50 C52 56 60 52 66 46 C70 42 76 42 80 46" fill="none" stroke="rgba(255,122,89,0.28)" stroke-width="6"/>
    <path d="M24 52 C30 46 38 46 44 50 C52 56 60 52 66 46 C70 42 76 42 80 46" fill="none" stroke="url(#asteroid15Lava)" stroke-width="2.5"/>

    <path d="M54 20 C48 30 50 36 56 42 C62 48 60 56 52 62" fill="none" stroke="rgba(255,122,89,0.22)" stroke-width="5"/>
    <path d="M54 20 C48 30 50 36 56 42 C62 48 60 56 52 62" fill="none" stroke="url(#asteroid15Lava)" stroke-width="2.3"/>

    <!-- ember pits (drawn last so lines don't slice through them) -->
    <g stroke="#ff7a59" stroke-opacity="0.55" stroke-width="2">
      <ellipse cx="32" cy="34" rx="9.5" ry="6.8" fill="rgba(0,0,0,0.14)" stroke="none" transform="translate(2 2)"/>
      <ellipse cx="32" cy="34" rx="9.5" ry="6.8" fill="rgba(255,122,89,0.16)"/>

      <ellipse cx="62" cy="36" rx="8" ry="5.8" fill="rgba(0,0,0,0.12)" stroke="none" transform="translate(2 2)"/>
      <ellipse cx="62" cy="36" rx="8" ry="5.8" fill="rgba(255,211,106,0.12)"/>

      <ellipse cx="54" cy="64" rx="7.5" ry="5.5" fill="rgba(0,0,0,0.12)" stroke="none" transform="translate(2 2)"/>
      <ellipse cx="54" cy="64" rx="7.5" ry="5.5" fill="rgba(255,122,89,0.12)"/>
    </g>

    <!-- cool highlight -->
    <path d="M24 26 C34 16 50 14 62 18" fill="none" stroke="rgba(255,255,255,0.12)" stroke-width="3"/>
  </g>
</svg>

