<svg xmlns="http://www.w3.org/2000/svg" viewBox="0 0 64 64" role="img" aria-label="Space Debris powerup icon">
  <defs>
    <linearGradient id="metalIcon" x1="0" y1="0" x2="1" y2="1">
      <stop offset="0" stop-color="#f3f4f6"/>
      <stop offset="0.55" stop-color="#9ca3af"/>
      <stop offset="1" stop-color="#4b5563"/>
    </linearGradient>
    <linearGradient id="panelIcon" x1="0" y1="0" x2="1" y2="0">
      <stop offset="0" stop-color="#1d4ed8"/>
      <stop offset="1" stop-color="#60a5fa"/>
    </linearGradient>
  </defs>
  <!-- Cluster of broken satellite fragments -->
  <path d="M10 22 L28 18 L34 28 L22 44 L12 40 L8 30 Z" fill="url(#metalIcon)" stroke="#111827" stroke-width="2" stroke-linejoin="round"/>
  <path d="M14 24 L27 22 L30 28 L21 40 L14 38 L11 30 Z" fill="url(#panelIcon)" stroke="#0b1024" stroke-width="1.5" stroke-linejoin="round"/>
  <g stroke="#93c5fd" stroke-width="1" opacity="0.75">
    <path d="M15 28 L28 26"/>
    <path d="M14 32 L29 29"/>
    <path d="M17 24 L15 38"/>
    <path d="M22 22 L20 40"/>
  </g>

  <path d="M30 14 L48 12 L56 22 L52 36 L36 38 L28 28 Z" fill="url(#metalIcon)" stroke="#111827" stroke-width="2" stroke-linejoin="round"/>
  <rect x="36" y="18" width="10" height="7" rx="1.7" fill="#6b7280" stroke="#111827" stroke-width="1.4"/>
  <circle cx="39" cy="21.5" r="1.1" fill="#e5e7eb"/>
  <circle cx="43" cy="21.5" r="1.1" fill="#e5e7eb"/>
  <path d="M48 12 L56 22 L52 23 L50 20 L46 22 L45 18 Z" fill="#111827" opacity="0.28"/>

  <path d="M26 40 L44 36 L50 42 L40 54 L28 52 L22 46 Z" fill="url(#metalIcon)" stroke="#111827" stroke-width="2" stroke-linejoin="round"/>
  <path d="M28 42 L42 39 L45 43 L37 52 L29 51 L25 46 Z" fill="#0f1735" opacity="0.22"/>
  <path d="M30 48 C34 46, 36 48, 40 46" fill="none" stroke="#ef4444" stroke-width="2" stroke-linecap="round"/>
</svg>


