<svg xmlns="http://www.w3.org/2000/svg" viewBox="0 0 64 64" role="img" aria-label="Satellite debris piece">
  <defs>
    <linearGradient id="metal5" x1="0" y1="0" x2="1" y2="1">
      <stop offset="0" stop-color="#f3f4f6"/>
      <stop offset="0.55" stop-color="#9ca3af"/>
      <stop offset="1" stop-color="#4b5563"/>
    </linearGradient>
    <radialGradient id="dish5" cx="0.35" cy="0.35" r="0.9">
      <stop offset="0" stop-color="#e5e7eb"/>
      <stop offset="1" stop-color="#6b7280"/>
    </radialGradient>
  </defs>
  <!-- Half dish antenna fragment -->
  <path d="M12 34 C14 18, 28 10, 44 12 C54 14, 60 22, 60 30 L38 46 L20 46 Z" fill="url(#dish5)" stroke="#111827" stroke-width="2" stroke-linejoin="round"/>
  <path d="M18 34 C20 24, 30 18, 42 18 C50 18, 56 22, 56 28 L38 40 L22 40 Z" fill="#0f1735" opacity="0.22"/>
  <!-- Support arm -->
  <path d="M22 44 L36 30 L44 34 L30 50 Z" fill="url(#metal5)" stroke="#111827" stroke-width="2" stroke-linejoin="round"/>
  <!-- Feed horn stub -->
  <circle cx="44" cy="34" r="3.4" fill="#9ca3af" stroke="#111827" stroke-width="1.6"/>
  <circle cx="44" cy="34" r="1.2" fill="#e5e7eb"/>
  <!-- Jagged broken rim -->
  <path d="M60 30 L58 34 L54 32 L52 36 L48 34 L46 38 L42 36 L38 46 L60 30 Z" fill="#111827" opacity="0.32"/>
</svg>


