<svg xmlns="http://www.w3.org/2000/svg" viewBox="0 0 64 64" role="img" aria-label="Satellite debris piece">
  <defs>
    <linearGradient id="metal10" x1="0" y1="0" x2="1" y2="1">
      <stop offset="0" stop-color="#e5e7eb"/>
      <stop offset="0.55" stop-color="#9ca3af"/>
      <stop offset="1" stop-color="#4b5563"/>
    </linearGradient>
    <linearGradient id="stripe10" x1="0" y1="0" x2="1" y2="0">
      <stop offset="0" stop-color="#f59e0b"/>
      <stop offset="1" stop-color="#fcd34d"/>
    </linearGradient>
  </defs>
  <!-- Large jagged plating with caution stripe -->
  <path d="M10 18 L46 12 L58 26 L52 48 L26 54 L8 38 Z" fill="url(#metal10)" stroke="#111827" stroke-width="2" stroke-linejoin="round"/>
  <!-- Caution band -->
  <path d="M16 26 L44 22 L46 28 L20 32 Z" fill="url(#stripe10)" stroke="#111827" stroke-width="1.6" stroke-linejoin="round"/>
  <g stroke="#111827" stroke-width="2">
    <path d="M18 26 L22 32"/>
    <path d="M24 25 L28 31"/>
    <path d="M30 24 L34 30"/>
    <path d="M36 23 L40 29"/>
  </g>
  <!-- Broken tear edge -->
  <path d="M46 12 L58 26 L54 27 L52 23 L48 26 L46 21 L42 23 Z" fill="#111827" opacity="0.3"/>
  <!-- Bolts -->
  <g fill="#e5e7eb" opacity="0.9">
    <circle cx="18" cy="38" r="1.2"/>
    <circle cx="28" cy="40" r="1.2"/>
    <circle cx="40" cy="36" r="1.2"/>
    <circle cx="46" cy="42" r="1.2"/>
  </g>
</svg>


