<svg xmlns="http://www.w3.org/2000/svg" viewBox="0 0 64 64" role="img" aria-label="Satellite debris piece">
  <defs>
    <linearGradient id="metal8" x1="0" y1="0" x2="1" y2="1">
      <stop offset="0" stop-color="#e5e7eb"/>
      <stop offset="0.6" stop-color="#a1a1aa"/>
      <stop offset="1" stop-color="#52525b"/>
    </linearGradient>
  </defs>
  <!-- Strut + cable harness -->
  <path d="M12 20 L34 14 L44 22 L24 52 L10 44 Z" fill="url(#metal8)" stroke="#111827" stroke-width="2" stroke-linejoin="round"/>
  <path d="M30 18 L54 10 L58 16 L36 26 Z" fill="url(#metal8)" stroke="#111827" stroke-width="2" stroke-linejoin="round"/>
  <!-- Cables -->
  <path d="M18 32 C26 26, 30 30, 40 24" fill="none" stroke="#f59e0b" stroke-width="2" stroke-linecap="round"/>
  <path d="M16 36 C25 30, 30 34, 42 28" fill="none" stroke="#ef4444" stroke-width="2" stroke-linecap="round"/>
  <!-- Fasteners -->
  <g fill="#e5e7eb" opacity="0.9">
    <circle cx="20" cy="24" r="1.2"/>
    <circle cx="30" cy="20" r="1.2"/>
    <circle cx="40" cy="18" r="1.2"/>
    <circle cx="24" cy="44" r="1.2"/>
  </g>
  <!-- Broken edge bite -->
  <path d="M58 16 L54 18 L52 14 L48 18 L46 14 L44 22 L58 16 Z" fill="#111827" opacity="0.28"/>
</svg>


