<svg xmlns="http://www.w3.org/2000/svg" viewBox="0 0 64 64" role="img" aria-label="Satellite debris piece">
  <defs>
    <linearGradient id="metal2" x1="0" y1="0" x2="1" y2="1">
      <stop offset="0" stop-color="#d1d5db"/>
      <stop offset="0.6" stop-color="#9ca3af"/>
      <stop offset="1" stop-color="#4b5563"/>
    </linearGradient>
    <linearGradient id="burn2" x1="0" y1="0" x2="1" y2="0">
      <stop offset="0" stop-color="#111827"/>
      <stop offset="1" stop-color="#374151"/>
    </linearGradient>
  </defs>
  <!-- Broken bus module chunk with antenna stub -->
  <path d="M14 18 L42 14 L54 28 L47 47 L22 50 L10 36 Z" fill="url(#metal2)" stroke="#111827" stroke-width="2" stroke-linejoin="round"/>
  <path d="M16 22 L39 19 L48 29 L44 43 L23 45 L14 35 Z" fill="#0f1735" opacity="0.35"/>
  <!-- Panel face plate -->
  <rect x="19" y="24" width="18" height="12" rx="2.5" fill="#6b7280" stroke="#111827" stroke-width="1.5"/>
  <circle cx="24" cy="30" r="1.4" fill="#e5e7eb"/>
  <circle cx="32" cy="30" r="1.4" fill="#e5e7eb"/>
  <circle cx="36" cy="30" r="1.4" fill="#e5e7eb"/>
  <!-- Torn edge / scorch -->
  <path d="M42 14 L54 28 L50 29 L47 25 L44 27 L42 22 L39 23 Z" fill="url(#burn2)" opacity="0.95"/>
  <!-- Antenna stub -->
  <path d="M45 20 L58 12" stroke="#e5e7eb" stroke-width="2.4" stroke-linecap="round"/>
  <circle cx="58" cy="12" r="2.2" fill="#9ca3af" stroke="#111827" stroke-width="1.4"/>
</svg>


