<svg xmlns="http://www.w3.org/2000/svg" viewBox="0 0 64 64" role="img" aria-label="Satellite debris piece">
  <defs>
    <linearGradient id="frame7" x1="0" y1="0" x2="1" y2="1">
      <stop offset="0" stop-color="#f3f4f6"/>
      <stop offset="1" stop-color="#6b7280"/>
    </linearGradient>
    <linearGradient id="panel7" x1="0" y1="0" x2="1" y2="0">
      <stop offset="0" stop-color="#1e40af"/>
      <stop offset="1" stop-color="#60a5fa"/>
    </linearGradient>
  </defs>
  <!-- Solar panel corner with snapped hinge -->
  <path d="M12 18 L52 14 L56 24 L38 52 L14 46 Z" fill="url(#frame7)" stroke="#111827" stroke-width="2" stroke-linejoin="round"/>
  <path d="M18 22 L48 19 L50 26 L36 48 L18 44 Z" fill="url(#panel7)" stroke="#0b1024" stroke-width="1.6" stroke-linejoin="round"/>
  <!-- Cell lines -->
  <g stroke="#93c5fd" stroke-width="1" opacity="0.75">
    <path d="M20 26 L48 23"/>
    <path d="M19 30 L49 26"/>
    <path d="M18 34 L48 30"/>
    <path d="M18 38 L44 35"/>
    <path d="M26 21 L22 45"/>
    <path d="M34 20 L30 48"/>
    <path d="M42 19 L38 48"/>
  </g>
  <!-- Hinge block -->
  <rect x="10" y="16" width="10" height="7" rx="1.7" fill="#6b7280" stroke="#111827" stroke-width="1.5"/>
  <circle cx="15" cy="19.5" r="1.2" fill="#e5e7eb"/>
  <!-- Snapped wire -->
  <path d="M12 44 C18 40, 22 42, 28 39" fill="none" stroke="#ef4444" stroke-width="2" stroke-linecap="round"/>
</svg>


