<svg xmlns="http://www.w3.org/2000/svg" viewBox="0 0 64 64" role="img" aria-label="Satellite debris piece">
  <defs>
    <linearGradient id="metal9" x1="0" y1="0" x2="1" y2="1">
      <stop offset="0" stop-color="#f3f4f6"/>
      <stop offset="0.55" stop-color="#9ca3af"/>
      <stop offset="1" stop-color="#374151"/>
    </linearGradient>
    <linearGradient id="glass9" x1="0" y1="0" x2="1" y2="1">
      <stop offset="0" stop-color="#93c5fd" stop-opacity="0.9"/>
      <stop offset="1" stop-color="#1d4ed8" stop-opacity="0.4"/>
    </linearGradient>
  </defs>
  <!-- Fragmented module with window -->
  <path d="M12 18 L50 12 L56 28 L44 52 L18 50 L8 32 Z" fill="url(#metal9)" stroke="#111827" stroke-width="2" stroke-linejoin="round"/>
  <path d="M18 22 L44 18 L48 28 L38 44 L20 42 L14 30 Z" fill="#0f1735" opacity="0.22"/>
  <rect x="22" y="24" width="14" height="10" rx="2" fill="url(#glass9)" stroke="#0b1024" stroke-width="1.4"/>
  <!-- Window glare -->
  <path d="M23 26 L29 25" stroke="#e5e7eb" stroke-width="1.2" opacity="0.75" stroke-linecap="round"/>
  <!-- Cracked seam -->
  <path d="M36 18 L34 24 L38 28 L32 32 L36 38" fill="none" stroke="#111827" stroke-width="1.4" opacity="0.45"/>
  <!-- Bolt corners -->
  <g fill="#e5e7eb" opacity="0.9">
    <circle cx="16" cy="22" r="1.2"/>
    <circle cx="48" cy="16" r="1.2"/>
    <circle cx="48" cy="46" r="1.2"/>
    <circle cx="18" cy="46" r="1.2"/>
  </g>
</svg>


