<svg xmlns="http://www.w3.org/2000/svg" viewBox="0 0 64 64" role="img" aria-label="Satellite debris piece">
  <defs>
    <linearGradient id="metal1" x1="0" y1="0" x2="1" y2="1">
      <stop offset="0" stop-color="#e5e7eb"/>
      <stop offset="0.55" stop-color="#9ca3af"/>
      <stop offset="1" stop-color="#6b7280"/>
    </linearGradient>
    <linearGradient id="panel1" x1="0" y1="0" x2="1" y2="0">
      <stop offset="0" stop-color="#1d4ed8"/>
      <stop offset="1" stop-color="#60a5fa"/>
    </linearGradient>
  </defs>
  <!-- Broken solar panel fragment with snapped frame -->
  <path d="M10 16 L44 10 L54 24 L36 46 L14 42 L8 28 Z" fill="url(#metal1)" stroke="#111827" stroke-width="2" stroke-linejoin="round"/>
  <path d="M16 20 L41 16 L48 25 L34 41 L17 38 L12 28 Z" fill="url(#panel1)" stroke="#0b1024" stroke-width="1.6" stroke-linejoin="round"/>
  <!-- Solar cell grid -->
  <g stroke="#93c5fd" stroke-width="1" opacity="0.8">
    <path d="M18 24 L43 20"/>
    <path d="M16 28 L46 23"/>
    <path d="M15 32 L45 27"/>
    <path d="M18 36 L39 33"/>
    <path d="M22 22 L19 37"/>
    <path d="M28 19 L24 40"/>
    <path d="M34 18 L30 41"/>
    <path d="M40 17 L36 40"/>
  </g>
  <!-- Snapped hinge + bolt -->
  <rect x="9" y="14" width="7" height="6" rx="1.5" fill="#6b7280" stroke="#111827" stroke-width="1.5"/>
  <circle cx="13" cy="17" r="1.2" fill="#e5e7eb"/>
</svg>


